<?xml version="1.0" encoding="utf-8"?>
<!-- Generator: Adobe Illustrator 24.1.1, SVG Export Plug-In . SVG Version: 6.00 Build 0)  -->
<svg version="1.1" id="Layer_1" xmlns="http://www.w3.org/2000/svg" xmlns:xlink="http://www.w3.org/1999/xlink" x="0px" y="0px"
	 viewBox="0 0 324.2 96.2" style="enable-background:new 0 0 324.2 96.2;" xml:space="preserve">
<style type="text/css">
	.st0{fill:#FFFFFF;}
	.st1{fill:url(#SVGID_1_);}
	.st2{fill:url(#SVGID_2_);}
	.st3{fill:url(#SVGID_3_);}
	.st4{fill:url(#SVGID_4_);}
	.st5{fill:url(#SVGID_5_);}
	.st6{fill:url(#SVGID_6_);}
	.st7{fill:url(#SVGID_7_);}
	.st8{fill:url(#SVGID_8_);}
	.st9{fill:url(#SVGID_9_);}
	.st10{fill:url(#SVGID_10_);}
</style>
<g>
	<g>
		<g>
			<g>
				<g>
					<path class="st0" d="M0.3,29.2L0,24l2.8-0.3V9.2L0,8.9l0.3-4.8h11.9v4.5l-1.8,0.3v4.8l1.9-0.5l3.6-4.6l-0.3,0V4.1h11.6v5.2
						l-4.6,0.2l-4.8,5.9l6.3,8.5l4.4,0.1l-0.3,5.2h-9.5L17,27.8l-5.2-7.9l-1.3,0.7v3.2l2.9,0.2L13,29.2H0.3z"/>
				</g>
			</g>
			<g>
				<g>
					<path class="st0" d="M31.2,16.8l0.3-7.4h4.3l0.5,1.1c1.2-0.7,2.9-1.5,4.9-1.5c4.2,0,7.6,2.2,7.6,7.9v7.1l2,0.2l-0.3,4.9h-7.6
						L42,27.8h-0.2c0,0-1.2,2.2-5.4,2.2c-4.4,0-7.1-2.4-7.1-6.1c0-5.7,7-6.5,12.2-7.1c-0.1-2.2-0.8-2.7-2.3-2.7
						c-1.1,0-1.9,0.3-2.4,0.7l-0.3,2H31.2z M41.5,23.5v-2.2c-3.4,0.2-4.6,0.5-4.6,1.9c0,1.4,0.7,1.9,1.9,1.9
						C40.7,25.1,41.4,23.7,41.5,23.5z"/>
				</g>
			</g>
			<g>
				<g>
					<path class="st0" d="M62.8,16.3l-0.3-1.5C61.9,14.4,61,14,60,14c-0.8,0-1.4,0.2-1.4,0.8c0,1.9,9.4,1.9,9.4,8
						c0,4.4-2.7,7.1-9.6,7.1c-3.8,0-6.5-0.9-6.5-0.9l-0.6-6.4l4.4-0.3l0.4,2.4c0.7,0.2,1.4,0.3,2,0.3c1.6,0,2.3-0.3,2.3-1.3
						c0-2-9.1-1.2-9.1-8c0-4.2,3.5-6.7,7.6-6.7c1.7,0,3.2,0.7,4.4,1.3L64,9.5h3.6l0,6.9H62.8z"/>
				</g>
			</g>
			<g>
				<g>
					<path class="st0" d="M69,39.9l-0.3-5.2l2-0.3V15.3l-1.8-0.3l0.3-5.2h7.9l0.3,0.8h0.3c0,0,1.9-1.6,6-1.6c5.4,0,8.6,4,8.6,9.7
						c0,6.3-3.5,11.2-8.8,11.2c-3.6,0-5.2-1.1-5.2-1.1H78v5.9l2,0.2l-0.3,4.9H69z M78,16v7.6c0,0,1,1.2,2.9,1.2
						c2.7,0,3.8-1.8,3.8-5.7c0-3.9-0.9-4.5-3.6-4.5C79,14.5,78,16,78,16z"/>
				</g>
			</g>
			<g>
				<g>
					<path class="st0" d="M93.5,29.2L93.2,24l2-0.3v-8.4l-1.8-0.3l0.3-5.2h8.8v14.2l2,0.2l-0.3,4.9H93.5z M98.9,0c1,0,2.1,0.3,2.9,1
						c0.8,0.8,1.2,1.8,1.2,2.9c0,1.1-0.4,2.1-1.2,2.9c-0.8,0.6-1.8,1-2.9,1c-2.5,0-4.2-1.7-4.2-3.9C94.7,1.8,96.3,0,98.9,0z"/>
				</g>
			</g>
			<g>
				<g>
					<path class="st0" d="M112.4,21.9c0.5,2.2,1.8,2.9,4,2.9c2.5,0,4.3-1.9,4.3-1.9l3.3,3.6c0,0-2.5,3.6-7.9,3.6
						c-6.9,0-11.2-3.5-11.2-10.6c0-7,4.6-10.4,10.3-10.4c6,0,9.2,3.2,9.2,8.7c0,2.4-1,4-1,4H112.4z M112.3,17.1h5.4c0,0,0-0.5,0-0.8
						c0-1.1-0.5-2.2-2.5-2.2C113.4,14.1,112.6,15.1,112.3,17.1z"/>
				</g>
			</g>
			<g>
				<g>
					<path class="st0" d="M132.7,21.9c0.5,2.2,1.8,2.9,4,2.9c2.5,0,4.3-1.9,4.3-1.9l3.3,3.6c0,0-2.5,3.6-7.9,3.6
						c-6.9,0-11.2-3.5-11.2-10.6c0-7,4.6-10.4,10.3-10.4c6,0,9.2,3.2,9.2,8.7c0,2.4-1,4-1,4H132.7z M132.6,17.1h5.4c0,0,0-0.5,0-0.8
						c0-1.1-0.5-2.2-2.5-2.2C133.6,14.1,132.8,15.1,132.6,17.1z"/>
				</g>
			</g>
			<g>
				<g>
					<path class="st0" d="M153,21.9c0.5,2.2,1.8,2.9,4,2.9c2.5,0,4.3-1.9,4.3-1.9l3.3,3.6c0,0-2.5,3.6-7.9,3.6
						c-6.9,0-11.2-3.5-11.2-10.6c0-7,4.6-10.4,10.3-10.4c6,0,9.2,3.2,9.2,8.7c0,2.4-1,4-1,4H153z M152.9,17.1h5.4c0,0,0-0.5,0-0.8
						c0-1.1-0.5-2.2-2.5-2.2C153.9,14.1,153.1,15.1,152.9,17.1z"/>
				</g>
			</g>
			<g>
				<g>
					<path class="st0" d="M166.4,29.2l-0.3-5.2l2-0.3v-8.4l-2.2-0.3l0.3-5.2h7.6l0.7,1.8h0.3c0,0,1.3-2.7,4.6-2.7c2.7,0,4,0.8,4,0.8
						l0,7.9h-5.2l-0.3-3c-2,0-2.4,1.3-2.4,1.5v7.8l2.8,0.2l-0.3,4.9H166.4z"/>
				</g>
			</g>
			<g>
				<g>
					<path class="st0" d="M183.4,33.6v-4h15.2v4H183.4z"/>
				</g>
			</g>
			<g>
				<g>
					<path class="st0" d="M88.6,79L88,70.6l4.5-0.4V46.5L88,46l0.6-7.9h19.5v7.3l-3,0.5v7.8l3.1-0.8l5.8-7.5l-0.4-0.1v-7.3h19v8.4
						l-7.5,0.3l-7.9,9.6l10.3,13.9l7.2,0.1l-0.6,8.5h-15.5l-3-2.3l-8.4-12.9l-2.2,1.1v5.2l4.7,0.3l-0.6,8.5H88.6z"/>
				</g>
			</g>
			<g>
				<g>
					<path class="st0" d="M136.7,79l-0.5-8.4l3.3-0.4V56.5l-3-0.4l0.6-8.4h14.4v23.1l3.3,0.4l-0.6,7.9H136.7z M145.5,31.4
						c1.7,0,3.5,0.6,4.7,1.6c1.3,1.3,2,3,2,4.8c0,1.8-0.7,3.5-2,4.7c-1.3,1-3,1.6-4.7,1.6c-4.1,0-6.9-2.8-6.9-6.3
						C138.6,34.3,141.3,31.4,145.5,31.4z"/>
				</g>
			</g>
			<g>
				<g>
					<path class="st0" d="M156.7,79l-0.5-8.4l3.3-0.4V56.5l-3-0.4l0.6-8.4h12.9l0.8,1.7h0.4c0,0,2.6-3,9.6-3
						c7.9,0,11.7,3.4,11.7,11.1v13.3l3.3,0.4l-0.6,7.9h-14.7V59.6c0-2.6-0.6-3.5-4-3.5c-3,0-5,1.6-5,1.6v13l3.3,0.4l-0.6,7.9H156.7z
						"/>
				</g>
			</g>
			<g>
				<g>
					<path class="st0" d="M227.1,56.3c0.1,0.6,0.2,1.3,0.2,1.9c0,8-6.8,12.2-14.9,12.2c0,0-3.8,0-3.8,1.4c0,0.9,0.6,1.7,7.7,1.8
						c8.6,0.1,13.6,3.1,13.6,9.9c0,6.7-4.7,12.6-17.2,12.6c-12.9,0-17.2-5.9-17.2-12c0-3.8,1.9-6.1,4.6-7.4
						c-0.6-1.2-0.8-2.6-0.8-4.3c0-2.2,0.9-3.9,2.3-5.1c-2.9-2.1-4.8-5.1-4.8-9.1c0-8,7.9-11.9,15.8-11.9c3.3,0,6.5,0.7,8.9,2.1
						l7.4-0.8l0.6,8.6L227.1,56.3z M207.9,82.1c-0.9,0.4-1.4,1.3-1.4,2.1c0,1.8,1.6,3.5,6.1,3.5s5.9-1.3,5.9-3
						C218.5,81.7,213,83.2,207.9,82.1z M208.3,58.2c0,3.3,1.7,4.5,3.7,4.5c2,0,3.6-1.3,3.6-4.7c0-2.8-1.7-3.6-3.6-3.6
						C210,54.4,208.3,55.4,208.3,58.2z"/>
				</g>
			</g>
			<g>
				<radialGradient id="SVGID_1_" cx="256.5261" cy="41.7453" r="60.1853" gradientUnits="userSpaceOnUse">
					<stop  offset="0" style="stop-color:#FEDF00"/>
					<stop  offset="1" style="stop-color:#F9A61D"/>
				</radialGradient>
				<polygon class="st1" points="274.9,74.5 239.6,71.1 238.8,79.5 277.6,88 310.3,82.9 310.3,77.8 				"/>
				<g>
					<radialGradient id="SVGID_2_" cx="256.5261" cy="41.7453" r="60.1853" gradientUnits="userSpaceOnUse">
						<stop  offset="0" style="stop-color:#FEDF00"/>
						<stop  offset="1" style="stop-color:#F9A61D"/>
					</radialGradient>
					<path class="st2" d="M283.8,42.5l-1.2,1.3c0,0-0.3,1.3-0.3,3.1c0-0.1,0-0.2,0-0.3C282.5,45.2,283,43.8,283.8,42.5z"/>
					<radialGradient id="SVGID_3_" cx="256.5261" cy="41.7453" r="60.1853" gradientUnits="userSpaceOnUse">
						<stop  offset="0" style="stop-color:#FEDF00"/>
						<stop  offset="1" style="stop-color:#F9A61D"/>
					</radialGradient>
					<path class="st3" d="M254.1,45.2c0,0,0,0.6,0.3,1.6c-0.1-0.6-0.2-1.3-0.2-2L254.1,45.2z"/>
					<radialGradient id="SVGID_4_" cx="256.5261" cy="41.7453" r="60.1853" gradientUnits="userSpaceOnUse">
						<stop  offset="0" style="stop-color:#FEDF00"/>
						<stop  offset="1" style="stop-color:#F9A61D"/>
					</radialGradient>
					<path class="st4" d="M272.9,46.1c0.4-1.7,0.3-3.1,0.3-3.1l-0.9-1.5c0.5,1.3,0.8,2.8,0.6,4.4C272.9,45.9,272.9,46,272.9,46.1z"
						/>
					<radialGradient id="SVGID_5_" cx="256.5261" cy="41.7453" r="60.1853" gradientUnits="userSpaceOnUse">
						<stop  offset="0" style="stop-color:#FEDF00"/>
						<stop  offset="1" style="stop-color:#F9A61D"/>
					</radialGradient>
					<path class="st5" d="M300.9,49.6l0-0.4c-0.1,0.7-0.3,1.3-0.5,1.9C300.8,50.3,300.9,49.6,300.9,49.6z"/>
					<radialGradient id="SVGID_6_" cx="256.5261" cy="41.7453" r="60.1853" gradientUnits="userSpaceOnUse">
						<stop  offset="0" style="stop-color:#FEDF00"/>
						<stop  offset="1" style="stop-color:#F9A61D"/>
					</radialGradient>
					<path class="st6" d="M300.9,43.3l0,2.6c0.1,0.8,0.2,1.7,0.1,2.5c0,0.3-0.1,0.5-0.1,0.8l0,0.4c0,0-0.1,0.6-0.5,1.5
						c-1.5,3.7-5.3,6.2-9.6,5.8c-5.1-0.5-8.8-4.9-8.5-10c0-1.8,0.3-3.1,0.3-3.1l1.2-1.3c0.5-0.8,1.2-1.6,2-2.2l6.3-7.1l-11.9-14.3
						l-14.3,11.9l4.9,8.2c0.6,0.8,1.1,1.6,1.5,2.5l0.9,1.5c0,0,0.1,1.4-0.3,3.1c-0.6,5-5.1,8.7-10.2,8.2c-4.2-0.4-7.5-3.5-8.3-7.5
						c-0.3-0.9-0.3-1.6-0.3-1.6l0.1-0.4c0-0.3,0-0.5,0-0.8c0.1-0.9,0.3-1.7,0.6-2.4l0.5-2.6l-21.4-12.1l9.3,40.6l32.1,3l32.1,3
						l16.7-38.1L300.9,43.3z"/>
					<radialGradient id="SVGID_7_" cx="256.5261" cy="41.7453" r="60.1853" gradientUnits="userSpaceOnUse">
						<stop  offset="0" style="stop-color:#FEDF00"/>
						<stop  offset="1" style="stop-color:#F9A61D"/>
					</radialGradient>
					<path class="st7" d="M270.7,38.9l1.5,2.5C271.9,40.5,271.4,39.7,270.7,38.9z"/>
					<radialGradient id="SVGID_8_" cx="256.5261" cy="41.7453" r="60.1853" gradientUnits="userSpaceOnUse">
						<stop  offset="0" style="stop-color:#FEDF00"/>
						<stop  offset="1" style="stop-color:#F9A61D"/>
					</radialGradient>
					<path class="st8" d="M254.2,44.8l0.6-3.2c-0.3,0.8-0.5,1.6-0.6,2.4C254.2,44.3,254.2,44.6,254.2,44.8z"/>
					<radialGradient id="SVGID_9_" cx="256.5261" cy="41.7453" r="60.1853" gradientUnits="userSpaceOnUse">
						<stop  offset="0" style="stop-color:#FEDF00"/>
						<stop  offset="1" style="stop-color:#F9A61D"/>
					</radialGradient>
					<path class="st9" d="M301,48.5c0.1-0.9,0-1.7-0.1-2.5l0,3.3C300.9,49,301,48.7,301,48.5z"/>
					<radialGradient id="SVGID_10_" cx="256.5261" cy="41.7453" r="60.1853" gradientUnits="userSpaceOnUse">
						<stop  offset="0" style="stop-color:#FEDF00"/>
						<stop  offset="1" style="stop-color:#F9A61D"/>
					</radialGradient>
					<path class="st10" d="M283.8,42.5l2-2.2C285,41,284.3,41.7,283.8,42.5z"/>
				</g>
			</g>
		</g>
	</g>
</g>
</svg>
